<svg xmlns="http://www.w3.org/2000/svg" width="16" height="16" fill="white" class="bi bi-instagram" viewBox="0 0 16 16">
  <path d="M8 0C5.829 0 5.556.01 4.703.048 3.85.088 3.269.222 2.76.42a3.917 3.917 0 0 0-1.417.923A3.927 3.927 0 0 0 .42 2.76C.222 3.268.087 3.85.048 4.703.01 5.555 0 5.827 0 8.001c0 2.172.01 2.444.048 3.297.04.852.174 1.433.372 1.942.205.526.478.972.923 1.417.444.445.89.719 1.416.923.51.198 1.09.333 1.942.372C5.555 15.99 5.827 16 8 16s2.444-.01 3.297-.048c.852-.04 1.433-.174 1.942-.372a3.917 3.917 0 0 0 1.417-.923 3.927 3.927 0 0 0 .923-1.417c.198-.51.333-1.09.372-1.942C15.99 10.445 16 10.173 16 8s-.01-2.445-.048-3.298c-.04-.851-.174-1.433-.372-1.941a3.917 3.917 0 0 0-.923-1.417A3.927 3.927 0 0 0 13.24 0.42c-.51-.198-1.09-.333-1.942-.372C10.445.01 10.173 0 8 0zm0 1.5c2.165 0 2.438.01 3.286.048.78.038 1.202.166 1.485.276.27.107.465.247.634.416.17.17.31.364.417.633.11.283.238.705.275 1.485.039.847.048 1.12.048 3.287 0 2.165-.01 2.438-.048 3.286-.038.78-.166 1.202-.276 1.485a2.594 2.594 0 0 1-.416.634 2.594 2.594 0 0 1-.633.417c-.283.11-.705.238-1.485-.275-.847-.039-1.12-.048-3.287-.048-2.165 0-2.438-.01-3.286-.048-.78-.038-1.202-.166-1.485-.276a2.594 2.594 0 0 1-.634-.416 2.594 2.594 0 0 1-.417-.633c-.11-.283-.238-.705-.275-1.485-.039-.847-.048-1.12-.048-3.287 0-2.165.01-2.438.048-3.286.038-.78.166-1.202.276-1.485.107-.27.247-.465.416-.634.17-.17.364-.31.633-.417.283-.11.705-.238 1.485-.275C5.562 1.51 5.835 1.5 8 1.5z"/>
  <path d="M8 5.835a2.165 2.165 0 1 0 0 4.33 2.165 2.165 0 0 0 0-4.33m0 1a1.165 1.165 0 1 1 0 2.33 1.165 1.165 0 0 1 0-2.33"/>
  <path d="M13.453 3.07a.5.5 0 0 1 .5.5v.708a.5.5 0 0 1-.5.5h-.708a.5.5 0 0 1-.5-.5v-.708a.5.5 0 0 1 .5-.5z"/>
</svg>